<?xml version="1.0" encoding="UTF-8" standalone="no"?>
<!-- Created with Inkscape (http://www.inkscape.org/) -->

<svg
   width="30"
   height="50"
   viewBox="0 0 7.9374998 13.229167"
   version="1.1"
   id="svg1"
   inkscape:version="1.3.2 (091e20e, 2023-11-25)"
   sodipodi:docname="car.svg"
   xml:space="preserve"
   xmlns:inkscape="http://www.inkscape.org/namespaces/inkscape"
   xmlns:sodipodi="http://sodipodi.sourceforge.net/DTD/sodipodi-0.dtd"
   xmlns:xlink="http://www.w3.org/1999/xlink"
   xmlns="http://www.w3.org/2000/svg"
   xmlns:svg="http://www.w3.org/2000/svg"><sodipodi:namedview
     id="namedview1"
     pagecolor="#505050"
     bordercolor="#eeeeee"
     borderopacity="1"
     inkscape:showpageshadow="0"
     inkscape:pageopacity="0"
     inkscape:pagecheckerboard="0"
     inkscape:deskcolor="#505050"
     inkscape:document-units="px"
     showguides="true"
     inkscape:zoom="7.566401"
     inkscape:cx="21.344362"
     inkscape:cy="24.11979"
     inkscape:window-width="1424"
     inkscape:window-height="866"
     inkscape:window-x="123"
     inkscape:window-y="106"
     inkscape:window-maximized="0"
     inkscape:current-layer="layer1"><sodipodi:guide
       position="3.9687592,2.2399357"
       orientation="0,-1"
       id="guide18"
       inkscape:locked="false" /></sodipodi:namedview><defs
     id="defs1"><linearGradient
       id="linearGradient15"
       inkscape:collect="always"><stop
         style="stop-color:#727272;stop-opacity:1;"
         offset="0"
         id="stop15" /><stop
         style="stop-color:#ffffff;stop-opacity:1;"
         offset="0.30695656"
         id="stop17" /><stop
         style="stop-color:#dcdcdc;stop-opacity:1;"
         offset="0.59101659"
         id="stop18" /><stop
         style="stop-color:#727272;stop-opacity:1;"
         offset="1"
         id="stop16" /></linearGradient><linearGradient
       inkscape:collect="always"
       xlink:href="#linearGradient15"
       id="linearGradient16"
       x1="3.96875"
       y1="90.138687"
       x2="3.96875"
       y2="-69.862923"
       gradientUnits="userSpaceOnUse"
       gradientTransform="matrix(0.07937417,0,0,0.07937417,3.653741,5.8098962)" /></defs><g
     inkscape:label="Layer 1"
     inkscape:groupmode="layer"
     id="layer1"><path
       id="rect2"
       style="fill:url(#linearGradient16);stroke:#000000;stroke-width:0.132292;stroke-dasharray:none;stroke-opacity:1"
       d="m 3.9687554,0.26458318 c -1.2335289,0 -2.3901861,0.32594877 -2.8357979,1.24369912 C 0.79939023,2.1952756 0.93580713,2.8022442 0.92987823,3.2797146 L 0.89496303,6.0901682 C 0.58488205,6.0654674 0.42477806,6.6105707 0.51698414,6.5939906 0.61099693,6.5770754 0.67360813,6.5026946 0.89061423,6.4393979 l -0.02616,2.109215 c -0.00835,0.6694675 -0.21063359,1.0918703 0.08208,2.8621351 0.25863837,1.564204 2.05009737,1.485188 3.02222507,1.553835 0.9721295,-0.06864 2.7635882,0.0104 3.0222247,-1.553835 C 7.2836947,9.6404832 7.081387,9.2180804 7.073064,8.5486129 L 7.046885,6.4393979 C 7.2638853,6.5026909 7.3265013,6.5770946 7.420515,6.5939906 7.512723,6.6105696 7.352614,6.0654588 7.0425381,6.0901682 L 7.0076227,3.2797146 C 7.0016707,2.8022442 7.1381193,2.1952756 6.8045433,1.5082823 6.3589325,0.59053195 5.2022747,0.26458318 3.9687439,0.26458318 Z"
       sodipodi:nodetypes="ssccsccscsccsccsss" /><path
       id="rect3"
       style="fill:#000000;fill-opacity:1;stroke-width:0.0420022"
       d="m 3.9687554,4.8741046 c -0.8982374,-8e-7 -2.0945443,0.5182137 -2.417495,1.1904585 L 1.8322313,6.7285163 C 2.4399756,6.5002178 3.170454,6.4478315 3.9687554,6.4478315 c 0.7983043,0 1.52877,0.052387 2.1365133,0.2806848 L 6.3862396,6.0645631 C 6.0632898,5.3923183 4.8669896,4.8741054 3.9687554,4.8741046 Z"
       sodipodi:nodetypes="accscca" /><path
       id="rect4"
       style="fill:#000000;fill-opacity:1;stroke-width:0.0420022"
       d="m 1.3019433,6.6629224 0.2928106,0.3182179 -0.00912,1.6013116 -0.2836608,0.311112 z"
       sodipodi:nodetypes="ccccc" /><path
       id="rect5"
       style="fill:#000000;fill-opacity:1;stroke-width:0.0420022"
       d="m 1.8249205,9.3344592 c -0.1504393,0 -0.012439,0.5737561 0.1004957,0.8277038 0.1253213,0.2818 0.3138516,0.603244 0.6073507,0.69798 0.3999237,0.129088 0.9553981,0.129088 1.4359924,0.129088 0.4805884,0 1.0079743,0 1.4359747,-0.129088 0.2952718,-0.08906 0.482028,-0.41618 0.6073488,-0.69798 C 6.1250173,9.9082153 6.3092336,9.5308527 6.1125785,9.3344592 5.6710959,8.8935639 4.6983221,8.8935645 3.9687602,8.8935639 c -0.7295673,-6e-7 -1.5898895,0 -2.1438349,0.4408953 z"
       sodipodi:nodetypes="sasasasass" /><path
       id="rect6"
       style="fill:#000000;stroke-width:0.0420022"
       d="m 2.3815219,0.74162589 c 0,0 -0.037085,0.26559351 -0.1002884,0.32108821 C 2.0823638,1.2373379 1.8111734,1.4221024 1.5405734,1.5857651 0.99596738,1.9151555 1.3701446,1.349083 1.4439177,1.2677777 1.782095,0.89507516 2.1632591,0.64154782 2.3815142,0.74162589 Z"
       sodipodi:nodetypes="cssscc" /><path
       id="rect7"
       style="fill:#000000;fill-opacity:1;stroke-width:0.0420022"
       d="M 1.8742147,12.276723 C 1.6512931,12.109875 1.5290025,11.976365 1.2711187,11.76138 c -0.16956,-0.14136 -0.023875,0.298629 0.2712067,0.545804 0.1482557,0.124192 0.4168877,0.317655 0.562753,0.267816 0.060288,-0.02061 -0.1450877,-0.234079 -0.2308637,-0.298277 z"
       sodipodi:nodetypes="sssss" /><path
       id="path9"
       style="fill:#000000;fill-opacity:1;stroke-width:0.0420022"
       d="m 6.6355639,6.6629224 -0.2928115,0.3182179 0.00912,1.6013116 0.2836608,0.311112 z"
       sodipodi:nodetypes="ccccc" /><path
       id="path11"
       style="fill:#1a1a1a;stroke-width:0.0420022"
       d="m 5.5559854,0.74162589 c 0,0 0.037085,0.26559351 0.1002873,0.32108821 0.1988708,0.1746238 0.4700611,0.3593883 0.7406611,0.523051 C 6.9415399,1.9151555 6.5673617,1.349083 6.4935895,1.2677777 6.1554122,0.89507516 5.7742452,0.64154782 5.5559931,0.74162589 Z"
       sodipodi:nodetypes="cssscc" /><path
       id="path12"
       style="fill:#000000;fill-opacity:1;stroke-width:0.0420022"
       d="m 6.0632916,12.276723 c 0.2229216,-0.166848 0.3452131,-0.300358 0.603096,-0.515343 0.16956,-0.14136 0.023875,0.298629 -0.2712058,0.545804 C 6.2469252,12.431376 5.9782922,12.624839 5.8324279,12.575 5.7721399,12.55439 5.9775156,12.340921 6.0632916,12.276723 Z"
       sodipodi:nodetypes="sssss" /></g></svg>
